<?xml version="1.0" encoding="utf-8"?>
<!-- Generator: Adobe Illustrator 20.0.0, SVG Export Plug-In . SVG Version: 6.00 Build 0)  -->
<svg version="1.1" id="Touch_ID" xmlns="http://www.w3.org/2000/svg" xmlns:xlink="http://www.w3.org/1999/xlink" x="0px" y="0px"
	 viewBox="0 0 203 203" style="enable-background:new 0 0 203 203;" xml:space="preserve">
<style type="text/css">
	.st0{fill:none;stroke:#929292;stroke-width:8;stroke-linecap:round;stroke-miterlimit:10;}
</style>
<g id="Large">
	<g>
		<path class="st0" d="M9.9,74.8C7.4,83.3,6,92.4,6,101.9c0,10.6,1.7,20.8,4.9,30.4"/>
		<path class="st0" d="M100.9,5.9C63.4,6.3,31,28.2,15.6,59.9"/>
		<path class="st0" d="M198,99.1C196.7,52.4,162,14,116.9,7"/>
		<path class="st0" d="M96.3,183.8c-1.9,5.3-3.8,9.8-5.5,13.4"/>
		<path class="st0" d="M102,101.9c0,0,6.3,25.3,1.6,54.2c-0.7,4.3-1.6,8.5-2.6,12.5"/>
		<path class="st0" d="M120.4,150.6c-0.2,1.8-0.5,3.6-0.8,5.5c-2.9,18-8,33.1-11.5,41.8"/>
		<path class="st0" d="M74.3,193.8c4.5-8.9,10.1-22.1,12.8-37.7c4-23,0.5-44-0.8-51.4c-0.2-0.9-0.3-1.9-0.3-2.8c0-8.8,7.2-16,16-16
			c7.6,0,13.9,5.3,15.6,12.4c0,0,3.7,16.2,3.7,36.4"/>
		<path class="st0" d="M184.8,130.6c0.1,6.4,0,13.3-0.4,20.4"/>
		<path class="st0" d="M70.6,28.2c9.6-4.1,20.2-6.4,31.4-6.4c40.4,0,73.9,30.1,79.3,69c0,0,1.7,9.3,2.8,23.7"/>
		<path class="st0" d="M21.7,154.5c1-2.4,1.8-5,2.4-7.8c2.3-9.9,0.4-23.9-1-31.5c-0.7-4.3-1.1-8.8-1.1-13.3
			C22,74.5,35.7,50.4,56.7,36"/>
		<path class="st0" d="M117.9,39.8c-5.1-1.3-10.4-2-15.9-2c-35.3,0-64,28.7-64,64c0,3.3,0.3,6.6,0.7,9.8c1.5,8.4,3.5,22.6,0.9,36.9
			c-1.4,7.6-3.9,14.3-6.7,20"/>
		<path class="st0" d="M165.8,173.5c0.6-3.3,1.1-6.8,1.5-10.3c4.7-36.9-2.1-71-2.1-71c-3-20.1-15.4-37.1-32.5-46.5"/>
		<path class="st0" d="M147.5,86.6c0.6,1.8,1.1,3.7,1.5,5.6c1.9,9.8,5.9,34,3.2,60.8c-1.3,12.9-3.6,24.5-6.1,34.1"/>
		<path class="st0" d="M56.3,143.9c2-18.3-1.4-32.6-1.4-32.6c-0.6-3-0.9-6.2-0.9-9.4c0-26.5,21.5-48,48-48
			c15.4,0,29.1,7.3,37.9,18.5"/>
		<path class="st0" d="M45.4,179.5c2.9-5.6,5.8-12.3,7.9-19.9"/>
		<path class="st0" d="M91,71.8c3.4-1.3,7.1-1.9,11-1.9c15.4,0,28.3,10.9,31.3,25.4c1.7,8.2,5.8,31.7,2.9,58.1
			c-1.9,16.7-5.8,31.2-9.3,41.3"/>
		<path class="st0" d="M59.4,187.9c4.8-9.1,9.7-21,11.8-34.1c3.1-19.8,0.8-37.5-0.7-46.2c-0.4-1.9-0.5-3.7-0.5-5.8
			c0-8.1,3-15.5,7.9-21.1"/>
	</g>
</g>
</svg>
